<mxfile host="app.diagrams.net" modified="2023-05-03T14:14:16.287Z" agent="Mozilla/5.0 (Macintosh; Intel Mac OS X 10_15_7) AppleWebKit/537.36 (KHTML, like Gecko) Chrome/113.0.0.0 Safari/537.36" version="21.2.1" etag="T9vmHg2CtgzC7mSCrhhC" type="github">
  <diagram name="Страница 1" id="CNXAPTQKbdVI9bD9Y01z">
    <mxGraphModel>
      <root>
        <mxCell id="0" />
        <mxCell id="1" parent="0" />
      </root>
    </mxGraphModel>
  </diagram>
</mxfile>
